<mxfile host="app.diagrams.net" modified="2020-12-20T23:32:16.653Z" agent="5.0 (X11; Linux x86_64) AppleWebKit/537.36 (KHTML, like Gecko) Chrome/87.0.4280.88 Safari/537.36" etag="Fp6Fvg6XS16sIC595NcZ" version="14.1.1" type="github">
  <diagram id="FVK82GPYwj_nhir-lwv4" name="Page-1">
    <mxGraphModel dx="900" dy="727" grid="1" gridSize="10" guides="1" tooltips="1" connect="1" arrows="1" fold="1" page="1" pageScale="1" pageWidth="827" pageHeight="1169" math="0" shadow="0">
      <root>
        <mxCell id="0" />
        <mxCell id="1" parent="0" />
        <mxCell id="cXl2kiiuHsrgFgcBL4Jd-14" value="Amazon API Gateway" style="outlineConnect=0;fontColor=#232F3E;gradientColor=none;strokeColor=#ffffff;fillColor=#232F3E;dashed=0;verticalLabelPosition=middle;verticalAlign=bottom;align=center;html=1;whiteSpace=wrap;fontSize=10;fontStyle=1;spacing=3;shape=mxgraph.aws4.productIcon;prIcon=mxgraph.aws4.api_gateway;" parent="1" vertex="1">
          <mxGeometry x="374" y="497.5" width="80" height="110" as="geometry" />
        </mxCell>
        <mxCell id="cXl2kiiuHsrgFgcBL4Jd-15" value="AWS Lambda" style="outlineConnect=0;fontColor=#232F3E;gradientColor=none;strokeColor=#ffffff;fillColor=#232F3E;dashed=0;verticalLabelPosition=middle;verticalAlign=bottom;align=center;html=1;whiteSpace=wrap;fontSize=10;fontStyle=1;spacing=3;shape=mxgraph.aws4.productIcon;prIcon=mxgraph.aws4.lambda;" parent="1" vertex="1">
          <mxGeometry x="520" y="497.5" width="80" height="100" as="geometry" />
        </mxCell>
        <mxCell id="cXl2kiiuHsrgFgcBL4Jd-18" value="Amazon Cognito" style="outlineConnect=0;fontColor=#232F3E;gradientColor=none;strokeColor=#ffffff;fillColor=#232F3E;dashed=0;verticalLabelPosition=middle;verticalAlign=bottom;align=center;html=1;whiteSpace=wrap;fontSize=10;fontStyle=1;spacing=3;shape=mxgraph.aws4.productIcon;prIcon=mxgraph.aws4.cognito;" parent="1" vertex="1">
          <mxGeometry x="240" y="156" width="80" height="110" as="geometry" />
        </mxCell>
        <mxCell id="cXl2kiiuHsrgFgcBL4Jd-19" value="AWS Identity and Access Management" style="outlineConnect=0;fontColor=#232F3E;gradientColor=none;strokeColor=#ffffff;fillColor=#232F3E;dashed=0;verticalLabelPosition=middle;verticalAlign=bottom;align=center;html=1;whiteSpace=wrap;fontSize=10;fontStyle=1;spacing=3;shape=mxgraph.aws4.productIcon;prIcon=mxgraph.aws4.identity_and_access_management;" parent="1" vertex="1">
          <mxGeometry x="374" y="156" width="80" height="120" as="geometry" />
        </mxCell>
        <mxCell id="cXl2kiiuHsrgFgcBL4Jd-20" value="devices" style="outlineConnect=0;gradientColor=none;fontColor=#545B64;strokeColor=none;fillColor=#879196;dashed=0;verticalLabelPosition=bottom;verticalAlign=top;align=center;html=1;fontSize=12;fontStyle=0;aspect=fixed;shape=mxgraph.aws4.illustration_devices;pointerEvents=1" parent="1" vertex="1">
          <mxGeometry x="80" y="504" width="100" height="73" as="geometry" />
        </mxCell>
        <mxCell id="cXl2kiiuHsrgFgcBL4Jd-21" value="Bucket" style="outlineConnect=0;fontColor=#232F3E;gradientColor=none;strokeColor=#232F3E;fillColor=#ffffff;dashed=0;verticalLabelPosition=bottom;verticalAlign=top;align=center;html=1;fontSize=12;fontStyle=0;aspect=fixed;shape=mxgraph.aws4.resourceIcon;resIcon=mxgraph.aws4.bucket;" parent="1" vertex="1">
          <mxGeometry x="640" y="174.5" width="60" height="60" as="geometry" />
        </mxCell>
        <mxCell id="cXl2kiiuHsrgFgcBL4Jd-22" value="devices" style="outlineConnect=0;gradientColor=none;fontColor=#545B64;strokeColor=none;fillColor=#879196;dashed=0;verticalLabelPosition=bottom;verticalAlign=top;align=center;html=1;fontSize=12;fontStyle=0;aspect=fixed;shape=mxgraph.aws4.illustration_devices;pointerEvents=1" parent="1" vertex="1">
          <mxGeometry x="80" y="161.5" width="100" height="73" as="geometry" />
        </mxCell>
        <mxCell id="cXl2kiiuHsrgFgcBL4Jd-23" value="Role" style="outlineConnect=0;fontColor=#232F3E;gradientColor=none;strokeColor=#232F3E;fillColor=#ffffff;dashed=0;verticalLabelPosition=bottom;verticalAlign=top;align=center;html=1;fontSize=12;fontStyle=0;aspect=fixed;shape=mxgraph.aws4.resourceIcon;resIcon=mxgraph.aws4.role;" parent="1" vertex="1">
          <mxGeometry x="510" y="161.5" width="60" height="60" as="geometry" />
        </mxCell>
        <mxCell id="cXl2kiiuHsrgFgcBL4Jd-24" value="Role" style="outlineConnect=0;fontColor=#232F3E;gradientColor=none;strokeColor=#232F3E;fillColor=#ffffff;dashed=0;verticalLabelPosition=bottom;verticalAlign=top;align=center;html=1;fontSize=12;fontStyle=0;aspect=fixed;shape=mxgraph.aws4.resourceIcon;resIcon=mxgraph.aws4.role;" parent="1" vertex="1">
          <mxGeometry x="510" y="280" width="60" height="60" as="geometry" />
        </mxCell>
        <mxCell id="cXl2kiiuHsrgFgcBL4Jd-25" value="DB instance" style="outlineConnect=0;fontColor=#232F3E;gradientColor=none;strokeColor=#232F3E;fillColor=#ffffff;dashed=0;verticalLabelPosition=bottom;verticalAlign=top;align=center;html=1;fontSize=12;fontStyle=0;aspect=fixed;shape=mxgraph.aws4.resourceIcon;resIcon=mxgraph.aws4.db_instance;" parent="1" vertex="1">
          <mxGeometry x="660" y="510.5" width="60" height="60" as="geometry" />
        </mxCell>
        <mxCell id="cXl2kiiuHsrgFgcBL4Jd-26" value="Amazon Cognito" style="outlineConnect=0;fontColor=#232F3E;gradientColor=none;strokeColor=#ffffff;fillColor=#232F3E;dashed=0;verticalLabelPosition=middle;verticalAlign=bottom;align=center;html=1;whiteSpace=wrap;fontSize=10;fontStyle=1;spacing=3;shape=mxgraph.aws4.productIcon;prIcon=mxgraph.aws4.cognito;" parent="1" vertex="1">
          <mxGeometry x="240" y="497.5" width="80" height="110" as="geometry" />
        </mxCell>
        <mxCell id="cXl2kiiuHsrgFgcBL4Jd-32" value="Authenticated" style="text;html=1;strokeColor=none;fillColor=none;align=center;verticalAlign=middle;whiteSpace=wrap;rounded=0;" parent="1" vertex="1">
          <mxGeometry x="520" y="244" width="40" height="20" as="geometry" />
        </mxCell>
        <mxCell id="cXl2kiiuHsrgFgcBL4Jd-35" value="Unauthenticated" style="text;html=1;strokeColor=none;fillColor=none;align=center;verticalAlign=middle;whiteSpace=wrap;rounded=0;" parent="1" vertex="1">
          <mxGeometry x="520" y="360" width="40" height="20" as="geometry" />
        </mxCell>
        <mxCell id="cXl2kiiuHsrgFgcBL4Jd-36" value="Amazon API Gateway" style="outlineConnect=0;fontColor=#232F3E;gradientColor=none;strokeColor=#ffffff;fillColor=#232F3E;dashed=0;verticalLabelPosition=middle;verticalAlign=bottom;align=center;html=1;whiteSpace=wrap;fontSize=10;fontStyle=1;spacing=3;shape=mxgraph.aws4.productIcon;prIcon=mxgraph.aws4.api_gateway;" parent="1" vertex="1">
          <mxGeometry x="374" y="717.5" width="80" height="110" as="geometry" />
        </mxCell>
        <mxCell id="cXl2kiiuHsrgFgcBL4Jd-37" value="AWS Lambda" style="outlineConnect=0;fontColor=#232F3E;gradientColor=none;strokeColor=#ffffff;fillColor=#232F3E;dashed=0;verticalLabelPosition=middle;verticalAlign=bottom;align=center;html=1;whiteSpace=wrap;fontSize=10;fontStyle=1;spacing=3;shape=mxgraph.aws4.productIcon;prIcon=mxgraph.aws4.lambda;" parent="1" vertex="1">
          <mxGeometry x="520" y="717.5" width="80" height="100" as="geometry" />
        </mxCell>
        <mxCell id="cXl2kiiuHsrgFgcBL4Jd-38" value="devices" style="outlineConnect=0;gradientColor=none;fontColor=#545B64;strokeColor=none;fillColor=#879196;dashed=0;verticalLabelPosition=bottom;verticalAlign=top;align=center;html=1;fontSize=12;fontStyle=0;aspect=fixed;shape=mxgraph.aws4.illustration_devices;pointerEvents=1" parent="1" vertex="1">
          <mxGeometry x="200" y="717.5" width="100" height="73" as="geometry" />
        </mxCell>
        <mxCell id="cXl2kiiuHsrgFgcBL4Jd-39" value="DB instance" style="outlineConnect=0;fontColor=#232F3E;gradientColor=none;strokeColor=#232F3E;fillColor=#ffffff;dashed=0;verticalLabelPosition=bottom;verticalAlign=top;align=center;html=1;fontSize=12;fontStyle=0;aspect=fixed;shape=mxgraph.aws4.resourceIcon;resIcon=mxgraph.aws4.db_instance;" parent="1" vertex="1">
          <mxGeometry x="660" y="724" width="60" height="60" as="geometry" />
        </mxCell>
        <mxCell id="cXl2kiiuHsrgFgcBL4Jd-55" value="" style="edgeStyle=orthogonalEdgeStyle;html=1;endArrow=block;elbow=vertical;startArrow=none;endFill=1;strokeColor=#545B64;rounded=0;" parent="1" edge="1">
          <mxGeometry width="100" relative="1" as="geometry">
            <mxPoint x="330" y="200" as="sourcePoint" />
            <mxPoint x="370" y="200" as="targetPoint" />
          </mxGeometry>
        </mxCell>
        <mxCell id="cXl2kiiuHsrgFgcBL4Jd-56" value="" style="edgeStyle=orthogonalEdgeStyle;html=1;endArrow=block;elbow=vertical;startArrow=none;endFill=1;strokeColor=#545B64;rounded=0;" parent="1" edge="1">
          <mxGeometry width="100" relative="1" as="geometry">
            <mxPoint x="330" y="541" as="sourcePoint" />
            <mxPoint x="370" y="541" as="targetPoint" />
          </mxGeometry>
        </mxCell>
        <mxCell id="cXl2kiiuHsrgFgcBL4Jd-57" value="" style="edgeStyle=orthogonalEdgeStyle;html=1;endArrow=block;elbow=vertical;startArrow=none;endFill=1;strokeColor=#545B64;rounded=0;" parent="1" edge="1">
          <mxGeometry width="100" relative="1" as="geometry">
            <mxPoint x="460" y="200" as="sourcePoint" />
            <mxPoint x="500" y="200" as="targetPoint" />
          </mxGeometry>
        </mxCell>
        <mxCell id="cXl2kiiuHsrgFgcBL4Jd-58" value="" style="edgeStyle=orthogonalEdgeStyle;html=1;endArrow=block;elbow=vertical;startArrow=none;endFill=1;strokeColor=#545B64;rounded=0;" parent="1" edge="1">
          <mxGeometry width="100" relative="1" as="geometry">
            <mxPoint x="590" y="200" as="sourcePoint" />
            <mxPoint x="630" y="200" as="targetPoint" />
          </mxGeometry>
        </mxCell>
        <mxCell id="cXl2kiiuHsrgFgcBL4Jd-59" value="" style="edgeStyle=orthogonalEdgeStyle;html=1;endArrow=block;elbow=vertical;startArrow=none;endFill=1;strokeColor=#545B64;rounded=0;" parent="1" edge="1">
          <mxGeometry width="100" relative="1" as="geometry">
            <mxPoint x="468" y="541" as="sourcePoint" />
            <mxPoint x="508" y="541" as="targetPoint" />
          </mxGeometry>
        </mxCell>
        <mxCell id="cXl2kiiuHsrgFgcBL4Jd-60" value="" style="edgeStyle=orthogonalEdgeStyle;html=1;endArrow=block;elbow=vertical;startArrow=none;endFill=1;strokeColor=#545B64;rounded=0;" parent="1" edge="1">
          <mxGeometry width="100" relative="1" as="geometry">
            <mxPoint x="470" y="759" as="sourcePoint" />
            <mxPoint x="510" y="759" as="targetPoint" />
          </mxGeometry>
        </mxCell>
        <mxCell id="cXl2kiiuHsrgFgcBL4Jd-61" value="" style="edgeStyle=orthogonalEdgeStyle;html=1;endArrow=block;elbow=vertical;startArrow=none;endFill=1;strokeColor=#545B64;rounded=0;" parent="1" edge="1">
          <mxGeometry width="100" relative="1" as="geometry">
            <mxPoint x="620" y="541" as="sourcePoint" />
            <mxPoint x="660" y="541" as="targetPoint" />
          </mxGeometry>
        </mxCell>
        <mxCell id="cXl2kiiuHsrgFgcBL4Jd-62" value="" style="edgeStyle=orthogonalEdgeStyle;html=1;endArrow=block;elbow=vertical;startArrow=none;endFill=1;strokeColor=#545B64;rounded=0;" parent="1" edge="1">
          <mxGeometry width="100" relative="1" as="geometry">
            <mxPoint x="620" y="759" as="sourcePoint" />
            <mxPoint x="660" y="759" as="targetPoint" />
          </mxGeometry>
        </mxCell>
        <mxCell id="cXl2kiiuHsrgFgcBL4Jd-63" value="" style="edgeStyle=orthogonalEdgeStyle;html=1;endArrow=block;elbow=vertical;startArrow=none;endFill=1;strokeColor=#545B64;rounded=0;" parent="1" edge="1">
          <mxGeometry width="100" relative="1" as="geometry">
            <mxPoint x="320" y="760" as="sourcePoint" />
            <mxPoint x="360" y="760" as="targetPoint" />
          </mxGeometry>
        </mxCell>
        <mxCell id="cXl2kiiuHsrgFgcBL4Jd-64" value="" style="edgeStyle=orthogonalEdgeStyle;html=1;endArrow=block;elbow=vertical;startArrow=none;endFill=1;strokeColor=#545B64;rounded=0;" parent="1" edge="1">
          <mxGeometry width="100" relative="1" as="geometry">
            <mxPoint x="190" y="540" as="sourcePoint" />
            <mxPoint x="230" y="540" as="targetPoint" />
          </mxGeometry>
        </mxCell>
        <mxCell id="cXl2kiiuHsrgFgcBL4Jd-65" value="" style="edgeStyle=orthogonalEdgeStyle;html=1;endArrow=block;elbow=vertical;startArrow=none;endFill=1;strokeColor=#545B64;rounded=0;" parent="1" edge="1">
          <mxGeometry width="100" relative="1" as="geometry">
            <mxPoint x="190" y="200" as="sourcePoint" />
            <mxPoint x="230" y="200" as="targetPoint" />
          </mxGeometry>
        </mxCell>
        <mxCell id="cXl2kiiuHsrgFgcBL4Jd-66" value="&lt;span style=&quot;font-size: 16px&quot;&gt;&lt;b&gt;Vendor Routes (Post, Put, Delete)&lt;/b&gt;&lt;/span&gt;" style="text;html=1;strokeColor=none;fillColor=none;align=center;verticalAlign=middle;whiteSpace=wrap;rounded=0;" parent="1" vertex="1">
          <mxGeometry x="290" y="446" width="280" height="20" as="geometry" />
        </mxCell>
        <mxCell id="cXl2kiiuHsrgFgcBL4Jd-67" value="&lt;span style=&quot;font-size: 16px&quot;&gt;&lt;b&gt;Shop Routes (Get)&lt;/b&gt;&lt;/span&gt;" style="text;html=1;strokeColor=none;fillColor=none;align=center;verticalAlign=middle;whiteSpace=wrap;rounded=0;" parent="1" vertex="1">
          <mxGeometry x="334" y="664" width="160" height="20" as="geometry" />
        </mxCell>
        <mxCell id="cXl2kiiuHsrgFgcBL4Jd-70" value="" style="edgeStyle=orthogonalEdgeStyle;html=1;endArrow=block;elbow=vertical;startArrow=none;endFill=1;strokeColor=#545B64;rounded=0;" parent="1" edge="1">
          <mxGeometry width="100" relative="1" as="geometry">
            <mxPoint x="419" y="290" as="sourcePoint" />
            <mxPoint x="500" y="320" as="targetPoint" />
            <Array as="points">
              <mxPoint x="419" y="320" />
            </Array>
          </mxGeometry>
        </mxCell>
        <mxCell id="cXl2kiiuHsrgFgcBL4Jd-71" value="&lt;span style=&quot;font-size: 16px&quot;&gt;&lt;b&gt;Image Upload&amp;nbsp; (Post, Get)&lt;/b&gt;&lt;/span&gt;" style="text;html=1;strokeColor=none;fillColor=none;align=center;verticalAlign=middle;whiteSpace=wrap;rounded=0;" parent="1" vertex="1">
          <mxGeometry x="260" y="100" width="280" height="20" as="geometry" />
        </mxCell>
      </root>
    </mxGraphModel>
  </diagram>
</mxfile>
